# xmcd CD database file
#
# Track frame offsets:
#	150
#	13754
#	35049
#	51359
#	64385
#	77711
#	90117
#	108287
#	129637
#	146341
#	160893
#	184427
#	198867
#	213025
#	223153
#	238035
#
# Disc length: 3347 seconds
#
# Revision: 0
# Processed by: cddbd v1.5.1PL0 Copyright (c) Steve Scherf et al.
# Submitted via: CDex 1.51
#
DISCID=e30d1110
DTITLE=John Denver - Voice of America
DYEAR=1993
DGENRE=Country
TTITLE0=Take Me Home Country Roads
TTITLE1=Leaving On A Jet Plane
TTITLE2=Rocky Mountain High
TTITLE3=Starwood In Aspen
TTITLE4=Garden Song
TTITLE5=Thank God I´M A Country Boy
TTITLE6=Song For The Life
TTITLE7=Annie´s Song
TTITLE8=Wrangell Mountain Song
TTITLE9=Sunshine On My Shoulders
TTITLE10=Welcome To My Morning 
TTITLE11=For Baby (For Bobby)
TTITLE12=Follow Me
TTITLE13=Back Home Again
TTITLE14=Calypso
TTITLE15=The Eagle And The Hawk
EXTD=YEAR: 1993
EXTT0=
EXTT1=
EXTT2=
EXTT3=
EXTT4=
EXTT5=
EXTT6=
EXTT7=
EXTT8=
EXTT9=
EXTT10=
EXTT11=
EXTT12=
EXTT13=
EXTT14=
EXTT15=
PLAYORDER=
